<svg fill="none" height="800" viewBox="0 0 24 24" width="800" xmlns="http://www.w3.org/2000/svg"><g stroke="#1c274d" stroke-width="1.5"><path d="m3 12c0 3.7712 0 7.6569 1.31802 8.8284 1.31802 1.1716 3.43934 1.1716 7.68198 1.1716 4.2426 0 6.364 0 7.682-1.1716 1.318-1.1715 1.318-5.0572 1.318-8.8284"/><path d="m14.6603 14.2019 6.0073-1.8022c.5955-.1786.8933-.268 1.0822-.4821.0368-.0417.0701-.0864.0994-.1336.1508-.2425.1508-.5533.1508-1.1751 0-2.45013 0-3.6752-.673-4.50231-.1293-.15896-.2746-.30426-.4336-.43361-.8271-.67298-2.0522-.67298-4.5023-.67298h-8.78217c-2.45016 0-3.67523 0-4.50234.67298-.15896.12935-.30426.27465-.43361.43361-.67298.82711-.67298 2.05218-.67298 4.50231 0 .6218 0 .9326.15078 1.1751.02937.0472.06263.0919.09943.1336.18894.2141.48669.3035 1.08219.4821l6.00728 1.8022"/><path d="m6.5 5c.82344-.02087 1.65925-.54509 1.93944-1.31968.00862-.02383.01746-.05033.03513-.10335l.02566-.07697c.04218-.12656.06328-.18986.08585-.246.28819-.71688.96353-1.20363 1.73472-1.25034.0604-.00366.1271-.00366.2606-.00366h2.8377c.1334 0 .2001 0 .2605.00366.7712.04671 1.4466.53346 1.7348 1.25034.0225.05614.0436.11943.0858.246l.0257.07697c.0176.05271.0265.07959.0351.10335.2802.77459 1.1156 1.29881 1.939 1.31968"/><path d="m14 12.5h-4c-.27614 0-.5.2239-.5.5v2.1615c0 .2044.12448.3883.3143.4642l.7001.2801c.9537.3814 2.0175.3814 2.9712 0l.7001-.2801c.1898-.0759.3143-.2598.3143-.4642v-2.1615c0-.2761-.2239-.5-.5-.5z" stroke-linecap="round"/></g></svg>