<svg width="113" height="100" viewBox="0 0 113 187" fill="none" xmlns="http://www.w3.org/2000/svg">
    <path d="M112.396 174.644L98.89 123.516C98.8592 123.383 98.8207 123.251 98.7748 123.122C97.6582 120.641 96.1472 118.358 94.3003 116.361C94.2205 116.286 94.1488 116.203 94.0865 116.114L80.3011 97.8375C79.9192 97.3362 79.7113 96.724 79.7089 96.0938V81.6668L92.9843 98.8574C95.9125 102.625 100.946 103.595 104.236 100.996C107.526 98.3968 107.855 93.2314 104.977 89.4807L79.7089 56.3827V50.8883C79.5174 46.9593 78.0176 43.2071 75.4483 40.2285C74.7409 39.5047 74.0171 38.8303 73.2604 38.1887V30.3748C76.7778 29.6825 79.9414 27.7795 82.2013 24.9965C84.4612 22.2136 85.6744 18.7268 85.6301 15.1421C85.5857 11.5575 84.2867 8.10172 81.9587 5.37554C79.6307 2.64935 76.421 0.825147 72.8875 0.220026C69.354 -0.385096 65.7202 0.26713 62.6177 2.06333C59.5153 3.85952 57.1403 6.68611 55.9057 10.0517C54.6711 13.4174 54.655 17.1092 55.8601 20.4855C57.0651 23.8618 59.4153 26.7091 62.5019 28.5324V31.6744L61.7616 31.3454C59.2966 30.7789 56.7128 31.057 54.4248 32.135C54.0146 32.3235 53.6582 32.612 53.3884 32.9739C53.3462 33.026 53.3077 33.081 53.2733 33.1384C53.1916 33.2497 53.1252 33.3714 53.0759 33.5004L52.9607 33.7307L29.4532 84.0357C27.4627 88.3786 28.9104 93.3466 32.7433 95.1561C36.5762 96.9656 41.2316 94.9093 43.255 90.5994L52.6317 70.7767V91.0106L41.1165 174.907C40.9017 176.022 40.9088 177.168 41.1374 178.28C41.366 179.392 41.8116 180.448 42.4488 181.388C43.0859 182.328 43.902 183.132 44.8505 183.756C45.799 184.38 46.8611 184.811 47.9763 185.024H48.3546C50.6176 185.449 52.9572 184.976 54.8769 183.705C56.7965 182.433 58.145 180.463 58.6361 178.214L68.4569 114.37L81.1565 129.175C82.3038 130.329 83.2294 131.684 83.8873 133.173C83.9484 133.321 83.9925 133.475 84.0189 133.633L94.1852 180.237C94.9876 182.411 96.5863 184.198 98.6573 185.236C100.728 186.275 103.117 186.487 105.338 185.83L107.378 185.205C108.435 184.891 109.414 184.358 110.252 183.641C111.089 182.923 111.766 182.038 112.24 181.042C112.713 180.046 112.971 178.962 112.998 177.86C113.025 176.757 112.82 175.662 112.396 174.644Z" fill="#1D2330"/>
    <path d="M75.3988 40.7548L72.2568 82.5715L66.5156 34.1582C67.2394 34.5366 67.9468 34.9643 68.6542 35.4084C70.2685 36.3666 71.7935 37.4677 73.2109 38.6985C74.017 39.3565 74.6914 40.0474 75.3988 40.7548Z" fill="white"/>
    <path d="M73.211 38.7315L72.1089 68.7369L68.6543 35.4086C70.2699 36.3772 71.795 37.4893 73.211 38.7315Z" fill="#001F47"/>
    <path d="M49.9007 103.463L42.2348 100.601L43.8798 96.1264C44.1528 95.358 44.1147 94.5133 43.7735 93.7726C43.4324 93.0319 42.8153 92.4539 42.0539 92.1619L28.8936 87.2268C28.1167 86.9441 27.2597 86.9789 26.5084 87.3238C25.757 87.6687 25.1718 88.2958 24.8797 89.0692L23.2347 93.5437L15.4208 90.632C14.3428 90.243 13.1549 90.2941 12.1142 90.7744C11.0736 91.2547 10.264 92.1255 9.86061 93.1983L0.270086 118.861C-0.129664 119.945 -0.084174 121.144 0.396625 122.195C0.877425 123.246 1.75448 124.064 2.83633 124.47L37.382 137.285C37.9166 137.485 38.4855 137.578 39.0561 137.559C39.6267 137.539 40.1877 137.407 40.7072 137.17C41.2267 136.933 41.6944 136.596 42.0836 136.178C42.4727 135.761 42.7757 135.27 42.9751 134.735L52.4669 109.056C52.8616 107.974 52.8135 106.78 52.333 105.733C51.8526 104.685 50.9786 103.87 49.9007 103.463ZM27.6269 90.0892C27.6378 90.0545 27.6598 90.0244 27.6896 90.0036C27.7193 89.9827 27.7552 89.9723 27.7914 89.974L40.9517 94.9091C40.9745 94.9165 40.9955 94.9284 41.0137 94.944C41.0318 94.9597 41.0467 94.9788 41.0574 95.0002C41.0681 95.0216 41.0744 95.0449 41.0761 95.0688C41.0777 95.0927 41.0746 95.1167 41.0668 95.1394L39.4218 99.6139L25.9326 94.6788L27.6269 90.0892Z" fill="#1D2330"/>
</svg>
