<svg width="414" height="614" viewBox="0 0 414 614" fill="none" xmlns="http://www.w3.org/2000/svg">
    <path d="M530.098 195.123C530.098 195.123 610.406 239.263 446.367 314.249C284.575 388.208 60.9337 225.052 -57.2432 308.216C-58.8844 309.371 -60.5053 310.573 -62.1053 311.825C-178.921 403.174 -15.9956 246.223 -15.9956 246.223C-13.3734 243.176 -10.6098 240.354 -7.71136 237.745C101.165 139.746 400.181 342.114 530.098 195.123Z" fill="url(#paint0_linear_1218_3965)"/>
    <path d="M9.87732 254.466C24.5664 250.88 32.6285 246.647 51.3425 247.785" stroke="white" stroke-width="4" stroke-linecap="round"/>
    <line x1="81.2604" y1="249.638" x2="119.011" y2="253.982" stroke="white" stroke-width="4" stroke-linecap="round"/>
    <path d="M149.505 259.047C164.01 260.341 172.627 261.452 191.018 265.429" stroke="white" stroke-width="4" stroke-linecap="round"/>
    <path d="M221.327 271.638C240.187 274.58 249.354 275.719 262.839 278.02" stroke="white" stroke-width="4" stroke-linecap="round"/>
    <path d="M294.542 283.986C313.062 287.832 322.732 289.565 336.054 290.367" stroke="white" stroke-width="4" stroke-linecap="round"/>
    <path d="M367.078 291.025C384.074 292.152 393.865 293.493 409.039 289.206" stroke="white" stroke-width="4" stroke-linecap="round"/>
    <path d="M151.396 234.644L137.89 183.516C137.859 183.383 137.821 183.251 137.775 183.122C136.658 180.641 135.147 178.358 133.3 176.361C133.22 176.286 133.149 176.203 133.086 176.114L119.301 157.838C118.919 157.336 118.711 156.724 118.709 156.094V141.667L131.984 158.857C134.912 162.625 139.946 163.595 143.236 160.996C146.526 158.397 146.855 153.231 143.977 149.481L118.709 116.383V110.888C118.517 106.959 117.018 103.207 114.448 100.229C113.741 99.5047 113.017 98.8303 112.26 98.1887V90.3748C115.778 89.6825 118.941 87.7795 121.201 84.9965C123.461 82.2136 124.674 78.7268 124.63 75.1421C124.586 71.5575 123.287 68.1017 120.959 65.3755C118.631 62.6494 115.421 60.8251 111.887 60.22C108.354 59.6149 104.72 60.2671 101.618 62.0633C98.5153 63.8595 96.1403 66.6861 94.9057 70.0517C93.6711 73.4174 93.655 77.1092 94.8601 80.4855C96.0651 83.8618 98.4153 86.7091 101.502 88.5324V91.6744L100.762 91.3454C98.2966 90.7789 95.7128 91.057 93.4248 92.135C93.0146 92.3235 92.6582 92.612 92.3884 92.9739C92.3462 93.026 92.3077 93.081 92.2733 93.1384C92.1916 93.2497 92.1252 93.3714 92.0759 93.5004L91.9607 93.7307L68.4532 144.036C66.4627 148.379 67.9104 153.347 71.7433 155.156C75.5762 156.966 80.2316 154.909 82.255 150.599L91.6317 130.777V151.011L80.1165 234.907C79.9017 236.022 79.9088 237.168 80.1374 238.28C80.366 239.392 80.8116 240.448 81.4488 241.388C82.0859 242.328 82.902 243.132 83.8505 243.756C84.799 244.38 85.8611 244.811 86.9763 245.024H87.3546C89.6176 245.449 91.9572 244.976 93.8769 243.705C95.7965 242.433 97.145 240.463 97.6361 238.214L107.457 174.37L120.157 189.175C121.304 190.329 122.229 191.684 122.887 193.173C122.948 193.321 122.993 193.475 123.019 193.633L133.185 240.237C133.988 242.411 135.586 244.198 137.657 245.236C139.728 246.275 142.117 246.487 144.338 245.83L146.378 245.205C147.435 244.891 148.414 244.358 149.252 243.641C150.089 242.923 150.766 242.038 151.24 241.042C151.713 240.046 151.971 238.962 151.998 237.86C152.025 236.757 151.82 235.662 151.396 234.644Z" fill="#1D2330"/>
    <path d="M114.399 100.755L111.257 142.571L105.516 94.1582C106.239 94.5366 106.947 94.9643 107.654 95.4084C109.268 96.3666 110.793 97.4677 112.211 98.6985C113.017 99.3565 113.691 100.047 114.399 100.755Z" fill="white"/>
    <path d="M112.211 98.7315L111.109 128.737L107.654 95.4086C109.27 96.3772 110.795 97.4893 112.211 98.7315V98.7315Z" fill="#001F47"/>
    <path d="M88.9007 163.463L81.2348 160.601L82.8798 156.126C83.1528 155.358 83.1147 154.513 82.7735 153.773C82.4324 153.032 81.8153 152.454 81.0539 152.162L67.8936 147.227C67.1167 146.944 66.2597 146.979 65.5084 147.324C64.757 147.669 64.1718 148.296 63.8797 149.069L62.2347 153.544L54.4208 150.632C53.3428 150.243 52.1549 150.294 51.1142 150.774C50.0736 151.255 49.264 152.125 48.8606 153.198L39.2701 178.861C38.8703 179.945 38.9158 181.144 39.3966 182.195C39.8774 183.246 40.7545 184.064 41.8363 184.47L76.382 197.285C76.9166 197.485 77.4855 197.578 78.0561 197.559C78.6267 197.539 79.1877 197.407 79.7072 197.17C80.2267 196.933 80.6944 196.596 81.0836 196.178C81.4727 195.761 81.7757 195.27 81.9751 194.735L91.4669 169.056C91.8616 167.974 91.8135 166.78 91.333 165.733C90.8526 164.685 89.9786 163.87 88.9007 163.463ZM66.6269 150.089C66.6378 150.054 66.6598 150.024 66.6896 150.004C66.7193 149.983 66.7552 149.972 66.7914 149.974L79.9517 154.909C79.9745 154.917 79.9955 154.928 80.0137 154.944C80.0318 154.96 80.0467 154.979 80.0574 155C80.0681 155.022 80.0744 155.045 80.0761 155.069C80.0777 155.093 80.0746 155.117 80.0668 155.139L78.4218 159.614L64.9326 154.679L66.6269 150.089Z" fill="#1D2330"/>
    <defs>
        <linearGradient id="paint0_linear_1218_3965" x1="548.901" y1="-175.985" x2="393.094" y2="542.44" gradientUnits="userSpaceOnUse">
            <stop stop-color="#B72F38"/>
            <stop offset="0.677083" stop-color="#D42733"/>
            <stop offset="0.982292" stop-color="#EF101F"/>
        </linearGradient>
    </defs>
</svg>
