<svg fill="none" height="27" viewBox="0 0 22 27" width="22" xmlns="http://www.w3.org/2000/svg"><path d="m10.4125 26.4125c-1.18918-.1422-2.2749-.7497-3.01811-1.6932-.31021-.3878-.24558-.9565.14218-1.2667.3813-.3102.93709-.2456 1.24083.1293 0 0 .00646.0064.00646.0129.45239.5687 1.11158.9371 1.82894 1.0211.7303.084 1.467-.1228 2.0422-.5752.1745-.1292.3296-.2779.4588-.4459.3038-.3813.8596-.4459 1.2473-.1422 0 0 0 0 .0065.0065.3878.3167.4459.8789.1357 1.2667-.2262.2843-.4847.5364-.7755.7561-.9436.7367-2.1391 1.0728-3.3283.9306zm-5.22188-5.3446c-1.52518-.1551-2.94697-.8531-3.99392-1.9711-.794905-.9694-1.2214408-2.1909-1.19559015-3.4446v-.3102c.04523865-.9436.34898315-1.8548.86599615-2.6432l.084015-.1099c.607489-.6657 1.021099-1.48 1.202059-2.3589l-.01939.0776v-.69153l.01292-.77552c.01293-.33606.03232-.64627.0517-.93709.21973-2.06159 1.26022-3.94868 2.88881-5.24121 1.66091-1.36362 3.72896-2.10683 5.87458-2.10683h.0905c2.1391 0 4.2136.74321 5.8616 2.10683 1.6286 1.29899 2.6691 3.18609 2.8888 5.25414.0194.2585.0323.49116.0388.84014v1.26667l.0129.2585.0582.2391c.1809.6786.504 1.3055.937 1.8548l.1939.2262.0776.1034c.5364.7949.8401 1.7255.8789 2.682v.517c-.0388 1.1892-.4782 2.3266-1.2473 3.2378-1.034 1.0987-2.4364 1.7837-3.9422 1.9259-1.9324.2068-3.8711.3167-5.8164.3167-1.93881 0-3.87114-.1034-5.79701-.3167zm-2.87588-7.3093-.09694.1681c-.2068.3748-.34898.7884-.40715 1.2149l-.01938.2456v.2844c-.01939.8013.24558 1.5898.7432 2.2167.74967.7884 1.76431 1.2796 2.85003 1.383 1.86771.2003 3.74188.3037 5.6225.3037 1.8871 0 3.7677-.1034 5.6419-.3037 1.0599-.097 2.0487-.5687 2.7919-1.3313.5364-.6463.8143-1.4606.7949-2.2943v-.2132c-.0259-.614-.2197-1.2021-.5623-1.7126l.0194.0323-.1809-.2068c-.614-.7626-1.0664-1.6416-1.3119-2.5916l-.0841-.3554-.0193-.1228c-.013-.1874-.0194-.3425-.0259-.51701v-1.16328c0-.29728-.0129-.49763-.0258-.71089-.5752-3.38644-3.5545-5.82286-6.9862-5.71946h-.0905c-3.42517-.10986-6.40445 2.33302-6.97317 5.71299-.01292.15511-.02585.3296-.03877.54933l-.01939.60749v1.18913l-.02585.181c-.23912 1.1697-.78845 2.2554-1.57689 3.1473h-.01293z" fill="#001f60"/></svg>