<svg fill="none" height="24" viewBox="0 0 25 24" width="25" xmlns="http://www.w3.org/2000/svg" xmlns:xlink="http://www.w3.org/1999/xlink"><linearGradient id="a"><stop offset="0" stop-color="#b72f38"/><stop offset=".677083" stop-color="#d42733"/><stop offset=".982292" stop-color="#ef101f"/></linearGradient><linearGradient id="b" gradientUnits="userSpaceOnUse" x1="12.51" x2="17.2164" xlink:href="#a" y1=".247481" y2="11.5744"/><linearGradient id="c" gradientUnits="userSpaceOnUse" x1="12.5012" x2="15.3312" xlink:href="#a" y1="9.45932" y2="22.1174"/><linearGradient id="d" gradientUnits="userSpaceOnUse" x1="12.5" x2="25.0809" xlink:href="#a" y1="-12.725" y2="17.5161"/><path d="m12.62 13.53c-.02 0-.05 0-.07 0-.03 0-.07 0-.1 0-2.27-.07-3.97002-1.84-3.97002-4.02002 0-2.22 1.81002-4.03 4.03002-4.03s4.03 1.81 4.03 4.03c-.01 2.19002-1.72 3.95002-3.89 4.02002-.02 0-.02 0-.03 0zm-.12-6.56002c-1.4 0-2.53002 1.14-2.53002 2.53 0 1.37002 1.07002 2.48002 2.43002 2.53002.03-.01.13-.01.23 0 1.34-.07 2.39-1.17 2.4-2.53002 0-1.39-1.13-2.53-2.53-2.53z" fill="url(#b)"/><path d="m12.4998 22.7501c-2.68996 0-5.25996-1-7.24996-2.82-.18-.16-.26-.4-.24-.63.13-1.19.87-2.3 2.1-3.12 2.97996-1.98 7.80996-1.98 10.77996 0 1.23.83 1.97 1.93 2.1 3.12.03.24-.06.47-.24.63-1.99 1.82-4.56 2.82-7.25 2.82zm-5.91996-3.65c1.66 1.39 3.74996 2.15 5.91996 2.15s4.26-.76 5.92-2.15c-.18-.61-.66-1.2-1.37-1.68-2.46-1.64-6.63-1.64-9.10996 0-.71.48-1.18 1.07-1.36 1.68z" fill="url(#c)"/><path d="m12.5 22.75c-5.93 0-10.75-4.82-10.75-10.75s4.82-10.75 10.75-10.75 10.75 4.82 10.75 10.75-4.82 10.75-10.75 10.75zm0-20c-5.1 0-9.25 4.15-9.25 9.25s4.15 9.25 9.25 9.25 9.25-4.15 9.25-9.25-4.15-9.25-9.25-9.25z" fill="url(#d)"/></svg>