<svg width="414" height="100" viewBox="0 0 414 614" fill="none" xmlns="http://www.w3.org/2000/svg">
<path d="M530.098 195.123C530.098 195.123 610.406 239.263 446.367 314.249C284.575 388.208 60.9337 225.052 -57.2432 308.216C-58.8844 309.371 -60.5053 310.573 -62.1053 311.825C-178.921 403.174 -15.9956 246.223 -15.9956 246.223C-13.3734 243.176 -10.6098 240.354 -7.71136 237.745C101.165 139.746 400.181 342.114 530.098 195.123Z" fill="url(#paint0_linear_1008_52095)"/>
<path d="M9.87732 254.466C24.5664 250.88 32.6285 246.647 51.3425 247.785" stroke="white" stroke-width="4" stroke-linecap="round"/>
<line x1="81.2604" y1="249.638" x2="119.011" y2="253.982" stroke="white" stroke-width="4" stroke-linecap="round"/>
<path d="M149.505 259.047C164.01 260.341 172.627 261.452 191.018 265.429" stroke="white" stroke-width="4" stroke-linecap="round"/>
<path d="M221.327 271.638C240.187 274.58 249.354 275.719 262.839 278.02" stroke="white" stroke-width="4" stroke-linecap="round"/>
<path d="M294.542 283.986C313.062 287.832 322.732 289.565 336.054 290.367" stroke="white" stroke-width="4" stroke-linecap="round"/>
<path d="M367.078 291.025C384.074 292.152 393.865 293.493 409.039 289.206" stroke="white" stroke-width="4" stroke-linecap="round"/>
<defs>
<linearGradient id="paint0_linear_1008_52095" x1="548.901" y1="-175.985" x2="393.094" y2="542.44" gradientUnits="userSpaceOnUse">
<stop stop-color="#B72F38"/>
<stop offset="0.677083" stop-color="#D42733"/>
<stop offset="0.982292" stop-color="#EF101F"/>
</linearGradient>
</defs>
</svg>
