<svg width="414" height="484" viewBox="0 0 414 484" fill="none" xmlns="http://www.w3.org/2000/svg">
    <path d="M414.518 0.132059C414.518 0.132059 505.603 -9.93576 414.518 145.741C324.681 299.285 47.8931 294.406 -0.968298 430.4C-1.64686 432.289 -2.28146 434.205 -2.87099 436.148C-45.9113 578.057 -2.87099 355.963 -2.87099 355.963C-2.47781 351.962 -1.83938 348.065 -0.968298 344.264C31.7529 201.48 392.755 195.097 414.518 0.132059Z" fill="url(#paint0_linear_904_71096)"/>
    <path d="M23.0367 347.829C32.9921 336.448 37.154 328.35 53.1184 318.519" stroke="white" stroke-width="4" stroke-linecap="round"/>
    <line x1="78.6613" y1="302.831" x2="112.044" y2="284.677" stroke="white" stroke-width="4" stroke-linecap="round"/>
    <path d="M139.904 271.286C152.515 264.004 160.203 259.958 177.536 252.636" stroke="white" stroke-width="4" stroke-linecap="round"/>
    <path d="M205.904 240.287C223.025 231.848 231.18 227.509 243.536 221.636" stroke="white" stroke-width="4" stroke-linecap="round"/>
    <path d="M272.904 208.287C290.268 200.784 299.174 196.641 310.536 189.637" stroke="white" stroke-width="4" stroke-linecap="round"/>
    <path d="M336.295 172.335C350.848 163.484 359.63 158.951 369.578 146.718" stroke="white" stroke-width="4" stroke-linecap="round"/>
    <line x1="387.964" y1="127.688" x2="412.672" y2="98.8179" stroke="white" stroke-width="4" stroke-linecap="round"/>
    <path d="M129.395 274.408L115.889 223.28C115.859 223.146 115.82 223.015 115.774 222.885C114.658 220.405 113.147 218.121 111.3 216.124C111.22 216.05 111.148 215.967 111.086 215.877L97.3006 197.601C96.9187 197.1 96.7108 196.488 96.7084 195.857V181.431L109.984 198.621C112.912 202.388 117.946 203.359 121.236 200.76C124.526 198.16 124.855 192.995 121.976 189.244L96.7084 156.146V150.652C96.5169 146.723 95.0172 142.971 92.4478 139.992C91.7404 139.268 91.0166 138.594 90.2599 137.952V130.138C93.7773 129.446 96.941 127.543 99.2008 124.76C101.461 121.977 102.674 118.49 102.63 114.906C102.585 111.321 101.286 107.865 98.9582 105.139C96.6302 102.413 93.4205 100.589 89.887 99.9837C86.3535 99.3786 82.7197 100.031 79.6172 101.827C76.5148 103.623 74.1398 106.45 72.9052 109.815C71.6707 113.181 71.6545 116.873 72.8596 120.249C74.0646 123.625 76.4148 126.473 79.5014 128.296V131.438L78.7611 131.109C76.2961 130.543 73.7123 130.821 71.4243 131.899C71.0141 132.087 70.6577 132.376 70.3879 132.738C70.3457 132.79 70.3072 132.845 70.2728 132.902C70.1911 133.013 70.1247 133.135 70.0754 133.264L69.9602 133.494L46.4527 183.799C44.4622 188.142 45.9099 193.11 49.7428 194.92C53.5757 196.729 58.2311 194.673 60.2545 190.363L69.6312 170.54V190.774L58.116 274.671C57.9012 275.786 57.9083 276.932 58.1369 278.044C58.3655 279.156 58.8111 280.212 59.4483 281.152C60.0854 282.091 60.9015 282.896 61.85 283.52C62.7985 284.144 63.8607 284.575 64.9758 284.788H65.3541C67.6171 285.213 69.9567 284.74 71.8764 283.468C73.796 282.197 75.1445 280.227 75.6356 277.977L85.4564 214.134L98.156 228.939C99.3033 230.093 100.229 231.448 100.887 232.936C100.948 233.085 100.992 233.239 101.018 233.397L111.185 280.001C111.987 282.174 113.586 283.961 115.657 285C117.728 286.038 120.116 286.251 122.338 285.594L124.378 284.969C125.435 284.654 126.414 284.121 127.251 283.404C128.089 282.687 128.766 281.802 129.239 280.806C129.712 279.81 129.971 278.726 129.998 277.623C130.024 276.521 129.819 275.425 129.395 274.408Z" fill="#1D2330"/>
    <path d="M92.3983 140.518L89.2563 182.335L83.5151 133.922C84.239 134.3 84.9463 134.728 85.6537 135.172C87.268 136.13 88.793 137.231 90.2104 138.462C91.0165 139.12 91.6909 139.811 92.3983 140.518Z" fill="white"/>
    <path d="M90.2105 138.495L89.1084 168.5L85.6538 135.172C87.2694 136.141 88.7945 137.253 90.2105 138.495Z" fill="#001F47"/>
    <path d="M66.9007 203.227L59.2348 200.365L60.8798 195.89C61.1528 195.122 61.1147 194.277 60.7735 193.536C60.4324 192.796 59.8153 192.218 59.0539 191.926L45.8936 186.99C45.1167 186.708 44.2597 186.743 43.5084 187.087C42.757 187.432 42.1718 188.059 41.8797 188.833L40.2347 193.307L32.4208 190.396C31.3428 190.007 30.1549 190.058 29.1142 190.538C28.0736 191.018 27.264 191.889 26.8606 192.962L17.2701 218.624C16.8703 219.709 16.9158 220.907 17.3966 221.958C17.8774 223.009 18.7545 223.827 19.8363 224.234L54.382 237.049C54.9166 237.249 55.4855 237.342 56.0561 237.322C56.6267 237.302 57.1877 237.17 57.7072 236.934C58.2267 236.697 58.6944 236.36 59.0836 235.942C59.4727 235.524 59.7757 235.034 59.9751 234.499L69.4669 208.82C69.8616 207.738 69.8135 206.543 69.333 205.496C68.8526 204.449 67.9786 203.634 66.9007 203.227ZM44.6269 189.853C44.6378 189.818 44.6598 189.788 44.6896 189.767C44.7193 189.746 44.7552 189.736 44.7914 189.738L57.9517 194.673C57.9745 194.68 57.9955 194.692 58.0137 194.708C58.0318 194.723 58.0467 194.742 58.0574 194.764C58.0681 194.785 58.0744 194.809 58.0761 194.833C58.0777 194.856 58.0746 194.88 58.0668 194.903L56.4218 199.378L42.9326 194.442L44.6269 189.853Z" fill="#1D2330"/>
    <defs>
        <linearGradient id="paint0_linear_904_71096" x1="216.5" y1="-314.293" x2="502.152" y2="363.064" gradientUnits="userSpaceOnUse">
            <stop stop-color="#B72F38"/>
            <stop offset="0.677083" stop-color="#D42733"/>
            <stop offset="0.982292" stop-color="#EF101F"/>
        </linearGradient>
    </defs>
</svg>
