<svg fill="none" height="22" viewBox="0 0 23 22" width="23" xmlns="http://www.w3.org/2000/svg"><path d="m11.7856.787533c-.0824-.175481-.2587-.287533-.4526-.287533-.1938 0-.3702.112052-.4526.287533l-2.97676 6.341297-6.64659 1.02156c-.18518.02846-.338911.15806-.398278.33576-.059366.1777-.014405.37368.116484.50774l4.823634 4.94031-1.13936 6.9853c-.03083.189.04899.379.20554.4893.15655.1102.36233.1214.5299.0288l5.93803-3.2837 5.938 3.2837c.1676.0926.3734.0814.5299-.0288.1566-.1103.2364-.3003.2056-.4893l-1.1394-6.9853 4.8237-4.94031c.1308-.13406.1758-.33004.1164-.50774-.0593-.1777-.2131-.3073-.3982-.33576l-6.6466-1.02156z" stroke="#bdbdbd" stroke-linecap="round" stroke-linejoin="round"/></svg>