<svg width="22" height="22" viewBox="0 0 22 22" fill="none" xmlns="http://www.w3.org/2000/svg">
<path fill-rule="evenodd" clip-rule="evenodd" d="M14.6932 7.8356C14.7288 7.42291 15.0921 7.11717 15.5048 7.15271C17.4168 7.31735 18.9142 7.9053 19.9079 9.12988C20.8847 10.3338 21.2605 12.0163 21.2605 14.1099V14.2399C21.2605 16.5491 20.8027 18.3609 19.587 19.5765C18.3714 20.7922 16.5596 21.2499 14.2505 21.2499H7.74047C5.43129 21.2499 3.61952 20.7922 2.40389 19.5765C1.18826 18.3609 0.730469 16.5491 0.730469 14.2399V14.1099C0.730469 12.0315 1.10117 10.3591 2.06232 9.15768C3.0408 7.93457 4.5164 7.33885 6.40086 7.16318C6.81328 7.12474 7.17878 7.42791 7.21723 7.84033C7.25568 8.25276 6.95251 8.61826 6.54008 8.65671C4.88454 8.81104 3.86514 9.30532 3.23362 10.0947C2.58476 10.9058 2.23047 12.1684 2.23047 14.1099V14.2399C2.23047 16.4008 2.66768 17.719 3.46455 18.5159C4.26142 19.3127 5.57964 19.7499 7.74047 19.7499H14.2505C16.4113 19.7499 17.7295 19.3127 18.5264 18.5159C19.3233 17.719 19.7605 16.4008 19.7605 14.2399V14.1099C19.7605 12.1536 19.4012 10.8861 18.7431 10.075C18.1017 9.2846 17.0642 8.79254 15.3761 8.64718C14.9634 8.61164 14.6577 8.24829 14.6932 7.8356Z" fill="white"/>
<path fill-rule="evenodd" clip-rule="evenodd" d="M11 0.25C11.4142 0.25 11.75 0.585786 11.75 1V13.88C11.75 14.2942 11.4142 14.63 11 14.63C10.5858 14.63 10.25 14.2942 10.25 13.88V1C10.25 0.585786 10.5858 0.25 11 0.25Z" fill="white"/>
<path fill-rule="evenodd" clip-rule="evenodd" d="M7.12006 11.1196C7.41295 10.8267 7.88783 10.8267 8.18072 11.1196L11.0004 13.9392L13.8201 11.1196C14.113 10.8267 14.5878 10.8267 14.8807 11.1196C15.1736 11.4125 15.1736 11.8873 14.8807 12.1802L11.5307 15.5302C11.2378 15.8231 10.763 15.8231 10.4701 15.5302L7.12006 12.1802C6.82717 11.8873 6.82717 11.4125 7.12006 11.1196Z" fill="white"/>
</svg>
